<svg width="18" height="17" viewBox="0 0 18 17" fill="none" xmlns="http://www.w3.org/2000/svg">
<path fill-rule="evenodd" clip-rule="evenodd" d="M8.62596 3.84015L5.27564 7.13963L3.3262 5.21969L8.62596 0L13.9275 5.22143L11.978 7.14135L8.62596 3.84015ZM3.89889 8.49501L1.94944 6.57521L0 8.49513L1.94944 10.4151L3.89889 8.49501ZM8.62596 13.1505L5.27564 9.85108L3.32333 11.7685L3.32606 11.7711L8.62596 16.9907L13.9275 11.7694L13.9284 11.7683L11.9779 9.84948L8.62596 13.1505ZM15.3027 10.4159L17.252 8.49593L15.3026 6.57602L13.3531 8.4961L15.3027 10.4159ZM10.6034 8.49422H10.6042L8.62605 6.54595L6.64959 8.498L8.62605 10.4445L10.6042 8.49622L10.6052 8.49519L10.6034 8.49422Z" fill="#F4BB2B"/>
</svg>
