<svg width="32" height="32" viewBox="0 0 32 32" fill="none" xmlns="http://www.w3.org/2000/svg">
<path fill-rule="evenodd" clip-rule="evenodd" d="M16.626 11.8402L13.2756 15.1396L11.3262 13.2197L16.626 8L21.9275 13.2214L19.978 15.1413L16.626 11.8402ZM11.8989 16.495L9.94944 14.5752L8 16.4951L9.94944 18.4151L11.8989 16.495ZM16.626 21.1505L13.2756 17.8511L11.3233 19.7685L11.3261 19.7711L16.626 24.9907L21.9275 19.7694L21.9284 19.7683L19.9779 17.8495L16.626 21.1505ZM23.3027 18.4159L25.252 16.4959L23.3026 14.576L21.3531 16.4961L23.3027 18.4159ZM18.6034 16.4942H18.6042L16.626 14.5459L14.6496 16.498L16.626 18.4445L18.6042 16.4962L18.6052 16.4952L18.6034 16.4942Z" fill="#F4BB2B"/>
<rect x="1" y="1" width="30" height="30" rx="10" stroke="#E2E2E8"/>
</svg>
