<svg width="18" height="17" viewBox="0 0 18 17" fill="none" xmlns="http://www.w3.org/2000/svg">
<path d="M5.27564 7.13963L8.62596 3.84015L11.978 7.14135L13.9275 5.22143L8.62596 0L3.3262 5.21969L5.27564 7.13963ZM1.94944 6.57521L3.89889 8.49501L1.94944 10.4151L0 8.49513L1.94944 6.57521ZM5.27564 9.85108L8.62596 13.1505L11.9779 9.84948L13.9284 11.7683L13.9275 11.7694L8.62596 16.9907L3.32606 11.7711L3.32333 11.7685L5.27564 9.85108ZM17.252 8.49593L15.3027 10.4159L13.3531 8.4961L15.3026 6.57602L17.252 8.49593Z" fill="#DE5A5A"/>
<path d="M10.6042 8.49417H10.6034L10.6052 8.49514L10.6042 8.49617L8.62605 10.4444L6.64959 8.49795L8.62605 6.5459L10.6042 8.49417Z" fill="#DE5A5A"/>
</svg>
