<svg width="32" height="32" viewBox="0 0 32 32" fill="none" xmlns="http://www.w3.org/2000/svg">
<rect x="1" y="0.686523" width="30" height="30" rx="10" stroke="#E2E2E8"/>
<path fill-rule="evenodd" clip-rule="evenodd" d="M15.3322 6.86065C15.2923 6.9564 14.0861 8.98628 12.6517 11.3715C11.2174 13.7567 10.0319 15.7396 10.0172 15.7778C9.99818 15.8276 10.7774 16.3134 12.7496 17.4813L15.5087 19.1151L18.267 17.4804C20.2486 16.306 21.0177 15.8259 20.9985 15.7756C20.8988 15.5153 15.5351 6.68652 15.4766 6.68652C15.4371 6.68652 15.3721 6.76486 15.3322 6.86065ZM10.0238 16.9529C10.1301 17.135 15.4859 24.6872 15.5083 24.6865C15.5453 24.6854 21.021 16.9305 20.9999 16.9092C20.9799 16.8892 15.8616 19.9104 15.6481 20.0682L15.5172 20.1649L12.8672 18.5969C11.4097 17.7345 10.1634 16.9941 10.0976 16.9516C9.98858 16.8812 9.98204 16.8813 10.0238 16.9529Z" fill="#6F6C99"/>
</svg>
