<svg width="139" height="31" viewBox="0 0 139 31" fill="none" xmlns="http://www.w3.org/2000/svg">
<path d="M34.02 25.208C32.7027 25.208 31.55 24.9653 30.562 24.48C29.5913 23.9773 28.8373 23.284 28.3 22.4C27.7627 21.4987 27.494 20.4587 27.494 19.28V17.642C27.494 17.5553 27.52 17.486 27.572 17.434C27.6413 17.3647 27.7193 17.33 27.806 17.33H30.848C30.9347 17.33 31.004 17.3647 31.056 17.434C31.1253 17.486 31.16 17.5553 31.16 17.642V19.28C31.16 20.112 31.4113 20.788 31.914 21.308C32.434 21.8107 33.136 22.062 34.02 22.062C34.8693 22.062 35.5627 21.8107 36.1 21.308C36.6547 20.788 36.932 20.112 36.932 19.28V7.112C36.932 7.02533 36.958 6.956 37.01 6.904C37.0793 6.83467 37.1573 6.8 37.244 6.8H40.26C40.3467 6.8 40.416 6.83467 40.468 6.904C40.5373 6.956 40.572 7.02533 40.572 7.112V19.28C40.572 20.4587 40.2947 21.4987 39.74 22.4C39.1853 23.284 38.414 23.9773 37.426 24.48C36.438 24.9653 35.3027 25.208 34.02 25.208ZM55.0918 25C54.9184 25 54.8058 24.9133 54.7538 24.74L53.9738 22.192C53.9391 22.1227 53.8958 22.088 53.8438 22.088H47.4478C47.3958 22.088 47.3524 22.1227 47.3178 22.192L46.5638 24.74C46.5118 24.9133 46.3991 25 46.2258 25H42.9238C42.8198 25 42.7418 24.974 42.6898 24.922C42.6378 24.8527 42.6291 24.7573 42.6638 24.636L48.2798 7.06C48.3318 6.88667 48.4444 6.8 48.6178 6.8H52.6998C52.8731 6.8 52.9858 6.88667 53.0378 7.06L58.6538 24.636C58.6711 24.6707 58.6798 24.714 58.6798 24.766C58.6798 24.922 58.5844 25 58.3938 25H55.0918ZM48.2538 19.098C48.2364 19.202 48.2711 19.254 48.3578 19.254H52.9338C53.0378 19.254 53.0724 19.202 53.0378 19.098L50.6978 11.376C50.6804 11.3067 50.6544 11.2807 50.6198 11.298C50.5851 11.298 50.5591 11.324 50.5418 11.376L48.2538 19.098ZM67.0625 25.208C65.7105 25.208 64.5232 24.948 63.5005 24.428C62.4779 23.8907 61.6892 23.1453 61.1345 22.192C60.5799 21.2387 60.3025 20.138 60.3025 18.89V12.884C60.3025 11.636 60.5799 10.5353 61.1345 9.582C61.6892 8.62867 62.4779 7.892 63.5005 7.372C64.5232 6.852 65.7105 6.592 67.0625 6.592C68.3972 6.592 69.5672 6.84333 70.5725 7.346C71.5952 7.83133 72.3839 8.53333 72.9385 9.452C73.5105 10.3533 73.7965 11.402 73.7965 12.598C73.7965 12.754 73.6925 12.8493 73.4845 12.884L70.4425 13.066H70.3905C70.2172 13.066 70.1305 12.9707 70.1305 12.78C70.1305 11.8613 69.8445 11.1247 69.2725 10.57C68.7179 10.0153 67.9812 9.738 67.0625 9.738C66.1265 9.738 65.3725 10.0153 64.8005 10.57C64.2459 11.1247 63.9685 11.8613 63.9685 12.78V19.046C63.9685 19.9473 64.2459 20.6753 64.8005 21.23C65.3725 21.7847 66.1265 22.062 67.0625 22.062C67.9812 22.062 68.7179 21.7847 69.2725 21.23C69.8445 20.6753 70.1305 19.9473 70.1305 19.046C70.1305 18.8553 70.2345 18.76 70.4425 18.76L73.4845 18.89C73.5712 18.89 73.6405 18.916 73.6925 18.968C73.7619 19.02 73.7965 19.0807 73.7965 19.15C73.7965 20.346 73.5105 21.4033 72.9385 22.322C72.3839 23.2407 71.5952 23.9513 70.5725 24.454C69.5672 24.9567 68.3972 25.208 67.0625 25.208ZM77.0569 25C76.9702 25 76.8922 24.974 76.8229 24.922C76.7709 24.8527 76.7449 24.7747 76.7449 24.688V7.112C76.7449 7.02533 76.7709 6.956 76.8229 6.904C76.8922 6.83467 76.9702 6.8 77.0569 6.8H80.0989C80.1856 6.8 80.2549 6.83467 80.3069 6.904C80.3762 6.956 80.4109 7.02533 80.4109 7.112V14.392C80.4109 14.444 80.4282 14.4787 80.4629 14.496C80.4976 14.496 80.5322 14.4787 80.5669 14.444L86.5729 6.982C86.6769 6.86067 86.8069 6.8 86.9629 6.8H90.3949C90.5336 6.8 90.6202 6.84333 90.6549 6.93C90.6896 6.99933 90.6722 7.086 90.6029 7.19L84.8049 14.6C84.7529 14.6693 84.7442 14.73 84.7789 14.782L90.9149 24.636C90.9496 24.74 90.9669 24.8007 90.9669 24.818C90.9669 24.9393 90.8802 25 90.7069 25H87.2749C87.1016 25 86.9802 24.9307 86.9109 24.792L82.2829 17.304C82.2656 17.2693 82.2396 17.252 82.2049 17.252C82.1702 17.252 82.1356 17.2693 82.1009 17.304L80.4629 19.358C80.4282 19.4273 80.4109 19.4793 80.4109 19.514V24.688C80.4109 24.7747 80.3762 24.8527 80.3069 24.922C80.2549 24.974 80.1856 25 80.0989 25H77.0569ZM100.794 6.774C101.938 6.774 102.944 7.008 103.81 7.476C104.677 7.944 105.344 8.61133 105.812 9.478C106.298 10.3273 106.54 11.3067 106.54 12.416C106.54 13.508 106.289 14.47 105.786 15.302C105.301 16.134 104.608 16.784 103.706 17.252C102.822 17.7027 101.8 17.928 100.638 17.928H96.9463C96.8596 17.928 96.8163 17.9713 96.8163 18.058V24.688C96.8163 24.7747 96.7816 24.8527 96.7123 24.922C96.6603 24.974 96.591 25 96.5043 25H93.4623C93.3756 25 93.2976 24.974 93.2283 24.922C93.1763 24.8527 93.1503 24.7747 93.1503 24.688V7.086C93.1503 6.99933 93.1763 6.93 93.2283 6.878C93.2976 6.80867 93.3756 6.774 93.4623 6.774H100.794ZM100.248 14.99C101.046 14.99 101.687 14.7647 102.172 14.314C102.658 13.846 102.9 13.2393 102.9 12.494C102.9 11.7313 102.658 11.116 102.172 10.648C101.687 10.18 101.046 9.946 100.248 9.946H96.9463C96.8596 9.946 96.8163 9.98933 96.8163 10.076V14.86C96.8163 14.9467 96.8596 14.99 96.9463 14.99H100.248ZM115.528 25.286C114.176 25.286 112.98 25.0087 111.94 24.454C110.917 23.8993 110.12 23.128 109.548 22.14C108.976 21.1347 108.69 19.982 108.69 18.682V13.118C108.69 11.8353 108.976 10.7 109.548 9.712C110.12 8.724 110.917 7.96133 111.94 7.424C112.98 6.86933 114.176 6.592 115.528 6.592C116.897 6.592 118.093 6.86933 119.116 7.424C120.156 7.96133 120.962 8.724 121.534 9.712C122.106 10.7 122.392 11.8353 122.392 13.118V18.682C122.392 19.982 122.106 21.1347 121.534 22.14C120.962 23.1453 120.156 23.9253 119.116 24.48C118.093 25.0173 116.897 25.286 115.528 25.286ZM115.528 22.14C116.481 22.14 117.253 21.8367 117.842 21.23C118.431 20.6233 118.726 19.8173 118.726 18.812V13.092C118.726 12.0867 118.431 11.2807 117.842 10.674C117.27 10.05 116.499 9.738 115.528 9.738C114.575 9.738 113.803 10.05 113.214 10.674C112.642 11.2807 112.356 12.0867 112.356 13.092V18.812C112.356 19.8173 112.642 20.6233 113.214 21.23C113.803 21.8367 114.575 22.14 115.528 22.14ZM137.817 6.8C137.904 6.8 137.973 6.83467 138.025 6.904C138.095 6.956 138.129 7.02533 138.129 7.112V9.66C138.129 9.74667 138.095 9.82467 138.025 9.894C137.973 9.946 137.904 9.972 137.817 9.972H133.163C133.077 9.972 133.033 10.0153 133.033 10.102V24.688C133.033 24.7747 132.999 24.8527 132.929 24.922C132.877 24.974 132.808 25 132.721 25H129.679C129.593 25 129.515 24.974 129.445 24.922C129.393 24.8527 129.367 24.7747 129.367 24.688V10.102C129.367 10.0153 129.324 9.972 129.237 9.972H124.713C124.627 9.972 124.549 9.946 124.479 9.894C124.427 9.82467 124.401 9.74667 124.401 9.66V7.112C124.401 7.02533 124.427 6.956 124.479 6.904C124.549 6.83467 124.627 6.8 124.713 6.8H137.817Z" fill="#E44747"/>
<path d="M11.4251 29.3021C11.0733 29.3021 10.7718 29.0508 10.6965 28.7242C10.6713 28.6488 9.18903 21.6141 3.05876 17.3179C2.83264 17.1672 2.73214 16.9159 2.75727 16.6647C2.78239 16.4134 2.93314 16.1873 3.18438 16.0617C3.23463 16.0366 8.03332 13.7 10.9477 8.22299C11.1487 7.87125 11.5758 7.72051 11.9527 7.9215C12.3044 8.12249 12.4552 8.5496 12.2542 8.92646C9.91763 13.2981 6.551 15.7853 4.84257 16.8154C8.58605 19.8052 10.5206 23.624 11.4251 26.0611C12.5054 23.1216 15.0681 18.1972 20.52 15.1321C15.0681 12.0921 12.5305 7.14265 11.4251 4.20314C10.2442 7.36877 7.3801 12.8458 1.04883 15.7853C0.671972 15.9612 0.244862 15.7853 0.068994 15.4336C-0.106874 15.0567 0.0689944 14.6296 0.420731 14.4538C8.78704 10.5595 10.6965 1.61536 10.6965 1.51487C10.7718 1.16313 11.0733 0.937012 11.4251 0.937012C11.7768 0.937012 12.0783 1.18825 12.1537 1.51487C12.1788 1.61536 14.0631 10.5595 22.4294 14.4538C22.6807 14.5794 22.8565 14.8306 22.8565 15.1321C22.8565 15.4085 22.6807 15.6848 22.4294 15.8105C14.0631 19.6544 12.1788 28.6237 12.1537 28.6991C12.0783 29.0508 11.7768 29.3021 11.4251 29.3021Z" fill="#E44747"/>
</svg>
