<svg width="139" height="32" viewBox="0 0 139 32" fill="none" xmlns="http://www.w3.org/2000/svg">
<path d="M34.02 26.208C32.7027 26.208 31.55 25.9653 30.562 25.48C29.5913 24.9773 28.8373 24.284 28.3 23.4C27.7627 22.4987 27.494 21.4587 27.494 20.28V18.642C27.494 18.5553 27.52 18.486 27.572 18.434C27.6413 18.3647 27.7193 18.33 27.806 18.33H30.848C30.9347 18.33 31.004 18.3647 31.056 18.434C31.1253 18.486 31.16 18.5553 31.16 18.642V20.28C31.16 21.112 31.4113 21.788 31.914 22.308C32.434 22.8107 33.136 23.062 34.02 23.062C34.8693 23.062 35.5627 22.8107 36.1 22.308C36.6547 21.788 36.932 21.112 36.932 20.28V8.112C36.932 8.02533 36.958 7.956 37.01 7.904C37.0793 7.83467 37.1573 7.8 37.244 7.8H40.26C40.3467 7.8 40.416 7.83467 40.468 7.904C40.5373 7.956 40.572 8.02533 40.572 8.112V20.28C40.572 21.4587 40.2947 22.4987 39.74 23.4C39.1853 24.284 38.414 24.9773 37.426 25.48C36.438 25.9653 35.3027 26.208 34.02 26.208ZM55.0918 26C54.9184 26 54.8058 25.9133 54.7538 25.74L53.9738 23.192C53.9391 23.1227 53.8958 23.088 53.8438 23.088H47.4478C47.3958 23.088 47.3524 23.1227 47.3178 23.192L46.5638 25.74C46.5118 25.9133 46.3991 26 46.2258 26H42.9238C42.8198 26 42.7418 25.974 42.6898 25.922C42.6378 25.8527 42.6291 25.7573 42.6638 25.636L48.2798 8.06C48.3318 7.88667 48.4444 7.8 48.6178 7.8H52.6998C52.8731 7.8 52.9858 7.88667 53.0378 8.06L58.6538 25.636C58.6711 25.6707 58.6798 25.714 58.6798 25.766C58.6798 25.922 58.5844 26 58.3938 26H55.0918ZM48.2538 20.098C48.2364 20.202 48.2711 20.254 48.3578 20.254H52.9338C53.0378 20.254 53.0724 20.202 53.0378 20.098L50.6978 12.376C50.6804 12.3067 50.6544 12.2807 50.6198 12.298C50.5851 12.298 50.5591 12.324 50.5418 12.376L48.2538 20.098ZM67.0625 26.208C65.7105 26.208 64.5232 25.948 63.5005 25.428C62.4779 24.8907 61.6892 24.1453 61.1345 23.192C60.5799 22.2387 60.3025 21.138 60.3025 19.89V13.884C60.3025 12.636 60.5799 11.5353 61.1345 10.582C61.6892 9.62867 62.4779 8.892 63.5005 8.372C64.5232 7.852 65.7105 7.592 67.0625 7.592C68.3972 7.592 69.5672 7.84333 70.5725 8.346C71.5952 8.83133 72.3839 9.53333 72.9385 10.452C73.5105 11.3533 73.7965 12.402 73.7965 13.598C73.7965 13.754 73.6925 13.8493 73.4845 13.884L70.4425 14.066H70.3905C70.2172 14.066 70.1305 13.9707 70.1305 13.78C70.1305 12.8613 69.8445 12.1247 69.2725 11.57C68.7179 11.0153 67.9812 10.738 67.0625 10.738C66.1265 10.738 65.3725 11.0153 64.8005 11.57C64.2459 12.1247 63.9685 12.8613 63.9685 13.78V20.046C63.9685 20.9473 64.2459 21.6753 64.8005 22.23C65.3725 22.7847 66.1265 23.062 67.0625 23.062C67.9812 23.062 68.7179 22.7847 69.2725 22.23C69.8445 21.6753 70.1305 20.9473 70.1305 20.046C70.1305 19.8553 70.2345 19.76 70.4425 19.76L73.4845 19.89C73.5712 19.89 73.6405 19.916 73.6925 19.968C73.7619 20.02 73.7965 20.0807 73.7965 20.15C73.7965 21.346 73.5105 22.4033 72.9385 23.322C72.3839 24.2407 71.5952 24.9513 70.5725 25.454C69.5672 25.9567 68.3972 26.208 67.0625 26.208ZM77.0569 26C76.9702 26 76.8922 25.974 76.8229 25.922C76.7709 25.8527 76.7449 25.7747 76.7449 25.688V8.112C76.7449 8.02533 76.7709 7.956 76.8229 7.904C76.8922 7.83467 76.9702 7.8 77.0569 7.8H80.0989C80.1856 7.8 80.2549 7.83467 80.3069 7.904C80.3762 7.956 80.4109 8.02533 80.4109 8.112V15.392C80.4109 15.444 80.4282 15.4787 80.4629 15.496C80.4976 15.496 80.5322 15.4787 80.5669 15.444L86.5729 7.982C86.6769 7.86067 86.8069 7.8 86.9629 7.8H90.3949C90.5336 7.8 90.6202 7.84333 90.6549 7.93C90.6896 7.99933 90.6722 8.086 90.6029 8.19L84.8049 15.6C84.7529 15.6693 84.7442 15.73 84.7789 15.782L90.9149 25.636C90.9496 25.74 90.9669 25.8007 90.9669 25.818C90.9669 25.9393 90.8802 26 90.7069 26H87.2749C87.1016 26 86.9802 25.9307 86.9109 25.792L82.2829 18.304C82.2656 18.2693 82.2396 18.252 82.2049 18.252C82.1702 18.252 82.1356 18.2693 82.1009 18.304L80.4629 20.358C80.4282 20.4273 80.4109 20.4793 80.4109 20.514V25.688C80.4109 25.7747 80.3762 25.8527 80.3069 25.922C80.2549 25.974 80.1856 26 80.0989 26H77.0569ZM100.794 7.774C101.938 7.774 102.944 8.008 103.81 8.476C104.677 8.944 105.344 9.61133 105.812 10.478C106.298 11.3273 106.54 12.3067 106.54 13.416C106.54 14.508 106.289 15.47 105.786 16.302C105.301 17.134 104.608 17.784 103.706 18.252C102.822 18.7027 101.8 18.928 100.638 18.928H96.9463C96.8596 18.928 96.8163 18.9713 96.8163 19.058V25.688C96.8163 25.7747 96.7816 25.8527 96.7123 25.922C96.6603 25.974 96.591 26 96.5043 26H93.4623C93.3756 26 93.2976 25.974 93.2283 25.922C93.1763 25.8527 93.1503 25.7747 93.1503 25.688V8.086C93.1503 7.99933 93.1763 7.93 93.2283 7.878C93.2976 7.80867 93.3756 7.774 93.4623 7.774H100.794ZM100.248 15.99C101.046 15.99 101.687 15.7647 102.172 15.314C102.658 14.846 102.9 14.2393 102.9 13.494C102.9 12.7313 102.658 12.116 102.172 11.648C101.687 11.18 101.046 10.946 100.248 10.946H96.9463C96.8596 10.946 96.8163 10.9893 96.8163 11.076V15.86C96.8163 15.9467 96.8596 15.99 96.9463 15.99H100.248ZM115.528 26.286C114.176 26.286 112.98 26.0087 111.94 25.454C110.917 24.8993 110.12 24.128 109.548 23.14C108.976 22.1347 108.69 20.982 108.69 19.682V14.118C108.69 12.8353 108.976 11.7 109.548 10.712C110.12 9.724 110.917 8.96133 111.94 8.424C112.98 7.86933 114.176 7.592 115.528 7.592C116.897 7.592 118.093 7.86933 119.116 8.424C120.156 8.96133 120.962 9.724 121.534 10.712C122.106 11.7 122.392 12.8353 122.392 14.118V19.682C122.392 20.982 122.106 22.1347 121.534 23.14C120.962 24.1453 120.156 24.9253 119.116 25.48C118.093 26.0173 116.897 26.286 115.528 26.286ZM115.528 23.14C116.481 23.14 117.253 22.8367 117.842 22.23C118.431 21.6233 118.726 20.8173 118.726 19.812V14.092C118.726 13.0867 118.431 12.2807 117.842 11.674C117.27 11.05 116.499 10.738 115.528 10.738C114.575 10.738 113.803 11.05 113.214 11.674C112.642 12.2807 112.356 13.0867 112.356 14.092V19.812C112.356 20.8173 112.642 21.6233 113.214 22.23C113.803 22.8367 114.575 23.14 115.528 23.14ZM137.817 7.8C137.904 7.8 137.973 7.83467 138.025 7.904C138.095 7.956 138.129 8.02533 138.129 8.112V10.66C138.129 10.7467 138.095 10.8247 138.025 10.894C137.973 10.946 137.904 10.972 137.817 10.972H133.163C133.077 10.972 133.033 11.0153 133.033 11.102V25.688C133.033 25.7747 132.999 25.8527 132.929 25.922C132.877 25.974 132.808 26 132.721 26H129.679C129.593 26 129.515 25.974 129.445 25.922C129.393 25.8527 129.367 25.7747 129.367 25.688V11.102C129.367 11.0153 129.324 10.972 129.237 10.972H124.713C124.627 10.972 124.549 10.946 124.479 10.894C124.427 10.8247 124.401 10.7467 124.401 10.66V8.112C124.401 8.02533 124.427 7.956 124.479 7.904C124.549 7.83467 124.627 7.8 124.713 7.8H137.817Z" fill="#53B9EA"/>
<path d="M11.4251 30.3021C11.0733 30.3021 10.7718 30.0508 10.6965 29.7242C10.6713 29.6488 9.18903 22.6141 3.05876 18.3179C2.83264 18.1672 2.73214 17.9159 2.75727 17.6647C2.78239 17.4134 2.93314 17.1873 3.18438 17.0617C3.23463 17.0366 8.03332 14.7 10.9477 9.22299C11.1487 8.87125 11.5758 8.72051 11.9527 8.9215C12.3044 9.12249 12.4552 9.5496 12.2542 9.92646C9.91763 14.2981 6.551 16.7853 4.84257 17.8154C8.58605 20.8052 10.5206 24.624 11.4251 27.0611C12.5054 24.1216 15.0681 19.1972 20.52 16.1321C15.0681 13.0921 12.5305 8.14265 11.4251 5.20314C10.2442 8.36877 7.3801 13.8458 1.04883 16.7853C0.671972 16.9612 0.244862 16.7853 0.068994 16.4336C-0.106874 16.0567 0.0689944 15.6296 0.420731 15.4538C8.78704 11.5595 10.6965 2.61536 10.6965 2.51487C10.7718 2.16313 11.0733 1.93701 11.4251 1.93701C11.7768 1.93701 12.0783 2.18825 12.1537 2.51487C12.1788 2.61536 14.0631 11.5595 22.4294 15.4538C22.6807 15.5794 22.8565 15.8306 22.8565 16.1321C22.8565 16.4085 22.6807 16.6848 22.4294 16.8105C14.0631 20.6544 12.1788 29.6237 12.1537 29.6991C12.0783 30.0508 11.7768 30.3021 11.4251 30.3021Z" fill="#53B9EA"/>
</svg>
