<svg width="18" height="18" viewBox="0 0 18 18" fill="none" xmlns="http://www.w3.org/2000/svg">
<rect width="18" height="18" rx="6" fill="url(#paint0_linear)"/>
<rect x="0.5" y="0.5" width="17" height="17" rx="5.5" stroke="#53B9EA" stroke-opacity="0.5"/>
<rect x="0.5" y="0.5" width="17" height="17" rx="5.5" stroke="url(#paint1_linear)" stroke-opacity="0.5"/>
<path d="M7.93961 10.892C7.89294 10.892 7.85094 10.878 7.81361 10.85C7.78561 10.8127 7.77161 10.7707 7.77161 10.724V10.276C7.77161 9.80933 7.88828 9.436 8.12161 9.156C8.36428 8.86667 8.70961 8.56333 9.15761 8.246C9.52161 7.994 9.79228 7.77 9.96961 7.574C10.1469 7.378 10.2356 7.14 10.2356 6.86C10.2356 6.56133 10.1236 6.32333 9.89961 6.146C9.67561 5.95933 9.38161 5.866 9.01761 5.866C8.62561 5.866 8.30828 5.964 8.06561 6.16C7.83228 6.356 7.71561 6.608 7.71561 6.916V7.14C7.71561 7.24267 7.65961 7.294 7.54761 7.294L5.90961 7.224C5.86294 7.224 5.82094 7.21 5.78361 7.182C5.75561 7.14467 5.74161 7.10267 5.74161 7.056V6.916C5.74161 6.356 5.88161 5.86133 6.16161 5.432C6.44161 4.99333 6.82894 4.65733 7.32361 4.424C7.82761 4.18133 8.40628 4.06 9.05961 4.06C9.69428 4.06 10.2496 4.17667 10.7256 4.41C11.2109 4.634 11.5843 4.95133 11.8456 5.362C12.1069 5.77267 12.2376 6.24867 12.2376 6.79C12.2376 7.20067 12.1629 7.55533 12.0136 7.854C11.8736 8.14333 11.7009 8.38133 11.4956 8.568C11.2903 8.75467 11.0289 8.96 10.7116 9.184C10.3756 9.41733 10.1283 9.618 9.96961 9.786C9.81094 9.954 9.73161 10.1593 9.73161 10.402V10.724C9.73161 10.7707 9.71294 10.8127 9.67561 10.85C9.64761 10.878 9.61028 10.892 9.56361 10.892H7.93961ZM8.69561 14.028C8.37828 14.028 8.11228 13.9253 7.89761 13.72C7.69228 13.5053 7.58961 13.2393 7.58961 12.922C7.58961 12.6047 7.69228 12.3433 7.89761 12.138C8.10294 11.9327 8.36894 11.83 8.69561 11.83C9.02228 11.83 9.28361 11.9327 9.47961 12.138C9.68494 12.334 9.78761 12.5953 9.78761 12.922C9.78761 13.2393 9.68494 13.5053 9.47961 13.72C9.27428 13.9253 9.01294 14.028 8.69561 14.028Z" fill="#53B9EA"/>
<defs>
<linearGradient id="paint0_linear" x1="9" y1="0" x2="9" y2="18" gradientUnits="userSpaceOnUse">
<stop stop-color="#282553"/>
<stop offset="1" stop-color="#4740A5" stop-opacity="0"/>
</linearGradient>
<linearGradient id="paint1_linear" x1="9" y1="0" x2="9" y2="18" gradientUnits="userSpaceOnUse">
<stop stop-color="white"/>
<stop offset="1" stop-color="white" stop-opacity="0"/>
</linearGradient>
</defs>
</svg>
