<svg width="28" height="28" viewBox="0 0 28 28" fill="none" xmlns="http://www.w3.org/2000/svg">
<g filter="url(#filter0_d)">
<rect x="3" y="3" width="18" height="18" rx="6" fill="url(#paint0_linear)"/>
<rect x="3.5" y="3.5" width="17" height="17" rx="5.5" stroke="#E16B6C" stroke-opacity="0.5"/>
<rect x="3.5" y="3.5" width="17" height="17" rx="5.5" stroke="url(#paint1_linear)" stroke-opacity="0.5"/>
</g>
<path d="M10.9396 13.892C10.8929 13.892 10.8509 13.878 10.8136 13.85C10.7856 13.8127 10.7716 13.7707 10.7716 13.724V13.276C10.7716 12.8093 10.8883 12.436 11.1216 12.156C11.3643 11.8667 11.7096 11.5633 12.1576 11.246C12.5216 10.994 12.7923 10.77 12.9696 10.574C13.1469 10.378 13.2356 10.14 13.2356 9.86C13.2356 9.56133 13.1236 9.32333 12.8996 9.146C12.6756 8.95933 12.3816 8.866 12.0176 8.866C11.6256 8.866 11.3083 8.964 11.0656 9.16C10.8323 9.356 10.7156 9.608 10.7156 9.916V10.14C10.7156 10.2427 10.6596 10.294 10.5476 10.294L8.90961 10.224C8.86294 10.224 8.82094 10.21 8.78361 10.182C8.75561 10.1447 8.74161 10.1027 8.74161 10.056V9.916C8.74161 9.356 8.88161 8.86133 9.16161 8.432C9.44161 7.99333 9.82894 7.65733 10.3236 7.424C10.8276 7.18133 11.4063 7.06 12.0596 7.06C12.6943 7.06 13.2496 7.17667 13.7256 7.41C14.2109 7.634 14.5843 7.95133 14.8456 8.362C15.1069 8.77267 15.2376 9.24867 15.2376 9.79C15.2376 10.2007 15.1629 10.5553 15.0136 10.854C14.8736 11.1433 14.7009 11.3813 14.4956 11.568C14.2903 11.7547 14.0289 11.96 13.7116 12.184C13.3756 12.4173 13.1283 12.618 12.9696 12.786C12.8109 12.954 12.7316 13.1593 12.7316 13.402V13.724C12.7316 13.7707 12.7129 13.8127 12.6756 13.85C12.6476 13.878 12.6103 13.892 12.5636 13.892H10.9396ZM11.6956 17.028C11.3783 17.028 11.1123 16.9253 10.8976 16.72C10.6923 16.5053 10.5896 16.2393 10.5896 15.922C10.5896 15.6047 10.6923 15.3433 10.8976 15.138C11.1029 14.9327 11.3689 14.83 11.6956 14.83C12.0223 14.83 12.2836 14.9327 12.4796 15.138C12.6849 15.334 12.7876 15.5953 12.7876 15.922C12.7876 16.2393 12.6849 16.5053 12.4796 16.72C12.2743 16.9253 12.0129 17.028 11.6956 17.028Z" fill="#E16B6C"/>
<defs>
<filter id="filter0_d" x="0" y="0" width="28" height="28" filterUnits="userSpaceOnUse" color-interpolation-filters="sRGB">
<feFlood flood-opacity="0" result="BackgroundImageFix"/>
<feColorMatrix in="SourceAlpha" type="matrix" values="0 0 0 0 0 0 0 0 0 0 0 0 0 0 0 0 0 0 127 0"/>
<feOffset dx="2" dy="2"/>
<feGaussianBlur stdDeviation="2.5"/>
<feColorMatrix type="matrix" values="0 0 0 0 0.465402 0 0 0 0 0.453125 0 0 0 0 0.625 0 0 0 0.15 0"/>
<feBlend mode="normal" in2="BackgroundImageFix" result="effect1_dropShadow"/>
<feBlend mode="normal" in="SourceGraphic" in2="effect1_dropShadow" result="shape"/>
</filter>
<linearGradient id="paint0_linear" x1="12" y1="3" x2="12" y2="21" gradientUnits="userSpaceOnUse">
<stop stop-color="white"/>
<stop offset="1" stop-color="white" stop-opacity="0"/>
</linearGradient>
<linearGradient id="paint1_linear" x1="12" y1="3" x2="12" y2="21" gradientUnits="userSpaceOnUse">
<stop stop-color="white"/>
<stop offset="1" stop-color="white" stop-opacity="0"/>
</linearGradient>
</defs>
</svg>
