<svg width="64" height="68" viewBox="0 0 64 68" fill="none" xmlns="http://www.w3.org/2000/svg">
<path d="M25.1346 11.6489C25.1346 11.6489 29.0832 14.081 29.8818 15.1073C31.9005 17.6956 34.7622 26.1519 34.7622 26.1519L32.6104 27.1783C32.6104 27.1783 27.486 18.7219 27.1533 18.5211C25.8444 17.7848 21.319 16.3122 21.319 16.3122" fill="#FF886F"/>
<path d="M20.1655 8.50293C23.249 9.1723 28.2847 13.1662 28.2847 13.1662L23.2712 19.3913L19.256 16.58" fill="#4376CF"/>
<path d="M36.5146 61.8959L36.2041 61.5166L30.3032 66.1799C30.0592 66.3807 29.7265 66.4253 29.4381 66.3137L29.3937 66.336L29.8818 66.9608C29.9039 66.9831 29.9261 67.0054 29.9483 67.0054H29.9705C30.148 67.0277 30.3476 66.9831 30.4807 66.8715L36.4924 62.1413C36.559 62.0744 36.5812 61.9628 36.5146 61.8959Z" fill="#010101"/>
<path d="M31.5234 53.7073L34.3628 59.5085L35.7826 61.6505L30.0593 66.1576C29.904 66.2914 29.6599 66.2468 29.549 66.0906C29.4603 65.9791 29.4381 65.8006 29.5268 65.6667L31.1684 62.1413L27.5082 56.7194" fill="#FF886F"/>
<path d="M30.9466 61.8513L29.3272 65.8006C29.2385 65.9568 29.2607 66.1576 29.3938 66.3138C29.5491 66.5146 29.8818 66.5146 30.0593 66.3807L36.2041 61.5166L34.2963 59.4416C34.3185 59.4193 32.8988 61.5613 30.9466 61.8513Z" fill="#F05448"/>
<path d="M30.5029 62.4314C30.8357 62.5206 31.1684 62.6322 31.479 62.8107" stroke="#010101" stroke-miterlimit="10" stroke-linecap="round" stroke-linejoin="round"/>
<path d="M30.3032 62.9446C30.6582 63.0561 30.8578 63.1231 31.124 63.2793" stroke="#010101" stroke-miterlimit="10" stroke-linecap="round" stroke-linejoin="round"/>
<path d="M30.1258 63.3684C30.3698 63.4353 30.6582 63.5692 30.88 63.6808" stroke="#010101" stroke-miterlimit="10" stroke-linecap="round" stroke-linejoin="round"/>
<path d="M18.5016 29.9893C18.5016 29.9893 18.6347 44.5592 19.7439 47.7722C21.1415 51.833 26.5099 60.691 26.5099 60.691L33.7417 56.8756L27.7743 45.474C27.5081 44.9608 27.375 44.3584 27.375 43.7783C27.4194 41.9487 27.5525 37.8655 27.6856 36.7722C27.8187 35.6343 28.2624 34.6525 28.6617 33.5815C29.4381 31.4173 30.2145 28.9406 29.8818 26.6201" fill="#173682"/>
<path d="M20.476 29.1863C20.476 29.1863 20.6091 43.7562 21.7182 46.9692C23.1158 51.03 28.3733 59.7095 28.3733 59.7095" stroke="#010101" stroke-width="0.75" stroke-miterlimit="10" stroke-linejoin="round"/>
<path d="M12.4011 66.8274V66.3365H4.9031C4.59254 66.3365 4.30415 66.1803 4.14887 65.9126H4.1045V66.7158C4.1045 66.7382 4.12668 66.7828 4.12668 66.8051L4.14887 66.8274C4.28197 66.9613 4.45943 67.0505 4.6369 67.0505H12.2237C12.3124 67.0059 12.4011 66.939 12.4011 66.8274Z" fill="#010101"/>
<path d="M13.4882 57.2775L12.1571 63.5919L11.9575 66.1578H4.70348C4.50383 66.1578 4.32636 66.0016 4.32636 65.7785C4.32636 65.6223 4.4151 65.4885 4.57038 65.4215L8.03101 63.6588L8.49686 57.1213" fill="#FF886F"/>
<path d="M8.03097 63.3464L4.34851 65.4438C4.19323 65.5107 4.08231 65.6892 4.08231 65.89C4.08231 66.1578 4.34851 66.3586 4.57035 66.3586H12.4011L12.1793 63.5249C12.1793 63.5249 9.76129 64.3282 8.03097 63.3464Z" fill="#F05448"/>
<path d="M7.34337 63.5251C7.5652 63.8152 7.74267 64.1053 7.89795 64.4399" stroke="#010101" stroke-miterlimit="10" stroke-linecap="round" stroke-linejoin="round"/>
<path d="M6.85528 63.8152C7.07712 64.1276 7.16585 64.3061 7.29895 64.5961" stroke="#010101" stroke-miterlimit="10" stroke-linecap="round" stroke-linejoin="round"/>
<path d="M6.45592 64.0159C6.6112 64.2167 6.74431 64.5067 6.85522 64.7299" stroke="#010101" stroke-miterlimit="10" stroke-linecap="round" stroke-linejoin="round"/>
<path d="M16.1281 27.4459L15.6179 30.882C15.6179 30.882 9.87233 39.2045 8.20857 45.4742C7.38778 48.531 5.65747 61.3829 5.65747 61.3829H13.9985C13.9985 61.3829 15.9062 49.245 17.0598 46.4783C18.2133 43.7339 23.0715 36.527 23.8923 35.2998C27.1533 32.7785 27.8631 28.3607 26.1994 24.2329" fill="#1238A7"/>
<path d="M19.0784 42.8191L23.626 35.7461C23.8035 35.5006 24.0032 35.2552 24.2472 35.0767C24.8683 34.5635 26.5986 32.6446 26.8427 30.7927" stroke="#010101" stroke-width="0.75" stroke-miterlimit="10" stroke-linejoin="round"/>
<path d="M17.6365 27.4458L17.215 30.2348C17.1484 30.6588 16.9932 31.0604 16.7491 31.4174C15.4625 33.3586 11.1145 40.1638 9.69479 45.4741C8.874 48.5309 7.1437 61.3828 7.1437 61.3828" stroke="#010101" stroke-width="0.75" stroke-miterlimit="10" stroke-linejoin="round"/>
<path d="M5.94584 59.3748H14.3534" stroke="#010101" stroke-width="0.75" stroke-miterlimit="10" stroke-linejoin="round"/>
<path d="M24.7352 30.5918L20.6978 30.6364C20.6978 30.6364 20.1876 33.3585 20.3429 33.5147C20.5647 33.7378 21.6961 34.8088 22.1176 34.8088C22.5391 34.8088 23.7592 33.7601 24.0032 33.5147C24.2472 33.2916 24.7352 30.5918 24.7352 30.5918Z" stroke="#010101" stroke-width="0.75" stroke-miterlimit="10" stroke-linejoin="round"/>
<path d="M20.5868 31.2166H21.0305" stroke="#010101" stroke-width="0.75" stroke-linejoin="round"/>
<path d="M21.4743 31.2166H23.9589" stroke="#010101" stroke-width="0.75" stroke-linejoin="round" stroke-dasharray="4.05 4.05"/>
<path d="M24.1806 31.2166H24.6243" stroke="#010101" stroke-width="0.75" stroke-linejoin="round"/>
<path d="M29.527 30.2124L28.3291 30.3463C28.3291 30.3463 28.1072 33.113 28.2847 33.2469L28.6618 33.827" stroke="#010101" stroke-width="0.75" stroke-miterlimit="10" stroke-linejoin="round"/>
<path d="M28.2846 30.9265L28.7283 30.8818" stroke="#010101" stroke-width="0.75" stroke-linejoin="round"/>
<path d="M28.9723 30.8371L29.416 30.7925" stroke="#010101" stroke-width="0.75" stroke-linejoin="round"/>
<path d="M25.5782 59.1069L32.9209 55.2915" stroke="#010101" stroke-width="0.75" stroke-miterlimit="10" stroke-linejoin="round"/>
<path d="M18.4129 7.67725C24.0032 9.55148 27.0645 17.2046 30.5917 27.4459C30.5917 27.4459 22.4503 29.9449 14.6861 29.4094C14.8192 24.9916 14.309 14.5494 14.309 14.5494L15.9284 8.1458" fill="#4376CF"/>
<path d="M26.0663 15.9106C26.0663 15.9106 23.4043 10.5333 19.6996 8.27979" stroke="#1D334F" stroke-width="0.75" stroke-miterlimit="10" stroke-linejoin="round"/>
<path d="M14.4421 4.30822C14.4421 4.75446 14.0872 5.13377 13.6213 5.13377C13.1777 5.13377 12.8006 4.77678 12.8006 4.30822C12.8006 3.86197 13.1555 3.48267 13.6213 3.48267C14.0872 3.48267 14.4421 3.86197 14.4421 4.30822Z" stroke="white" stroke-width="0.5" stroke-miterlimit="10" stroke-linejoin="round"/>
<path d="M14.3091 7.00786L14.9746 3.46021L17.1264 5.33444L17.4813 5.82531L18.4352 7.67723C18.4352 7.67723 17.4813 9.77459 15.7066 9.52915C15.5957 9.50684 15.5291 9.4399 15.4848 9.35065L14.3091 7.00786Z" fill="#FF886F"/>
<path d="M13.5105 2.0545C13.0447 3.10318 12.4679 6.91858 13.2887 7.47639C14.0873 8.01189 15.5514 7.78876 16.1725 7.20864C16.7271 6.71777 17.6588 3.6833 16.9933 2.79081C16.3056 1.89832 14.176 0.604205 13.5105 2.0545Z" fill="#FF886F"/>
<path d="M17.8807 2.4561C17.437 1.07273 16.6384 0.849609 15.4405 0.849609C14.3535 0.849609 13.2 0.849609 12.357 1.5636C12.1573 1.7421 12.0242 1.94291 12.0464 2.21066C12.113 2.63459 12.5566 2.92465 12.9338 2.99159C13.5105 3.10315 14.0651 3.21471 14.6197 3.3709C15.1965 3.52709 15.4627 4.10721 15.9507 4.37495C16.0394 4.41958 16.1282 4.4642 16.2169 4.50883C16.3944 4.62039 16.5497 4.8212 16.594 5.04432C16.6384 5.20051 16.6162 5.37901 16.6606 5.53519C16.7271 5.80294 16.9711 5.93682 17.1708 6.07069C17.3483 6.18225 17.7032 6.36075 17.7032 6.36075C17.7032 6.36075 18.3687 5.26745 18.3687 4.21877C18.4131 3.70559 18.3022 2.85772 17.8807 2.4561Z" fill="#010101"/>
<path d="M14.8193 7.83345C14.8193 7.83345 15.995 7.72189 16.35 6.87402" stroke="#D85039" stroke-width="0.75" stroke-miterlimit="10" stroke-linejoin="round"/>
<path d="M13.2887 4.33032C13.2887 4.33032 12.2461 5.40131 12.3792 5.69137C12.5123 5.98143 13.0003 5.91449 13.0003 5.91449" fill="#FF886F"/>
<path d="M13.7545 4.24125C13.7101 4.30819 13.7101 4.39744 13.688 4.46438C13.6658 4.55363 13.7545 4.64287 13.8654 4.62056C14.0429 4.59825 14.0873 4.19663 13.8654 4.17432C13.8211 4.17432 13.7767 4.19663 13.7545 4.24125Z" fill="#010101"/>
<path d="M13.1776 6.24911L14.4865 6.11523C14.4865 6.11523 14.3755 7.07466 13.5991 7.09698C13.1333 7.09698 13.1776 6.24911 13.1776 6.24911Z" fill="white"/>
<path d="M13.577 3.86198C13.8654 3.90661 14.1316 4.01817 14.3756 4.17436C14.3978 4.17436 14.5087 4.04048 14.4644 3.95123C14.4422 3.8843 14.0207 3.66117 13.6436 3.59424C13.6436 3.61655 13.5326 3.81736 13.577 3.86198Z" fill="#010101"/>
<path d="M14.7085 4.39733C14.7085 4.84358 14.3536 5.22289 13.8877 5.22289C13.444 5.22289 13.0669 4.86589 13.0669 4.39733C13.0669 3.92877 13.4219 3.57178 13.8877 3.57178C14.3314 3.57178 14.7085 3.95109 14.7085 4.39733Z" stroke="white" stroke-width="0.5" stroke-miterlimit="10" stroke-linejoin="round"/>
<path d="M13.1111 4.19658L12.8449 4.12964" stroke="white" stroke-width="0.5" stroke-miterlimit="10" stroke-linejoin="round"/>
<path d="M14.7084 4.35278L16.35 4.77672" stroke="white" stroke-width="0.5" stroke-miterlimit="10" stroke-linejoin="round"/>
<path d="M16.1059 4.888C16.239 4.7095 16.4164 4.50869 16.6161 4.531C16.727 4.531 16.8157 4.59794 16.8823 4.68719C17.215 5.13344 17.1263 5.84743 16.6383 6.1598C16.4386 6.29368 16.1946 6.31599 16.0615 6.07055L16.0393 4.99956C16.0393 4.97725 16.0615 4.93262 16.1059 4.888Z" fill="#FF886F"/>
<path d="M16.8601 5.98145C16.8601 5.98145 16.5052 6.36076 16.1281 6.18226" stroke="#D85039" stroke-width="0.75" stroke-miterlimit="10" stroke-linejoin="round"/>
<path d="M12.6229 13.0098C12.6229 13.0098 10.4933 18.6325 10.1827 19.0787C9.80562 19.6142 3.35022 26.0401 3.35022 26.0401L4.52595 28.4276C4.52595 28.4276 12.756 23.5858 13.8208 22.2247C14.8191 20.9529 16.5272 16.5128 16.5272 16.5128" fill="#FF886F"/>
<path d="M19.5443 8.85963C17.7031 8.03407 15.3516 8.16795 13.3107 11.4925C11.9575 13.7237 10.1829 17.3606 10.1829 17.3606L16.5273 20.6628L19.8549 13.6568" fill="#4376CF"/>
<path d="M19.3668 14.7053L16.5273 20.6627L10.1829 17.3605" stroke="#1D334F" stroke-width="0.75" stroke-miterlimit="10" stroke-linejoin="round"/>
<path d="M16.8379 8.54749C16.8379 8.54749 18.1246 8.25743 19.3003 8.77061" stroke="#1D334F" stroke-width="0.75" stroke-miterlimit="10" stroke-linejoin="round"/>
<path d="M10.7152 16.2898L17.0597 19.5251" stroke="#1D334F" stroke-width="0.75" stroke-miterlimit="10" stroke-linejoin="round"/>
<path d="M3.79395 25.5938C3.79395 25.5938 3.01752 26.3301 2.108 26.5309C2.108 26.5309 2.13018 26.9994 2.15237 27.0887C2.04145 27.2002 1.24284 27.5795 0.932273 27.6911C0.53297 27.825 0.000564098 28.0481 0.0227475 28.2712C0.0449309 28.5613 2.28546 27.7804 2.28546 27.7804C2.28546 27.7804 -0.0438042 28.6728 0.000562668 28.9183C0.04493 29.253 2.39638 28.3605 2.39638 28.3605C2.39638 28.3605 0.422051 29.1637 0.466418 29.4092C0.510785 29.6546 1.93053 29.0522 2.55167 28.8737C2.13018 29.0745 0.998823 29.5207 1.02101 29.6992C1.04319 29.8777 1.93053 29.6546 2.15237 29.5653C3.43901 29.0968 5.74609 27.6465 5.74609 27.6465" fill="#FF886F"/>
<path d="M40.1084 56.5186L39.7091 63.8593C39.7091 63.8593 35.9601 66.4698 35.9601 66.5145C35.9601 66.5591 39.4207 66.693 39.4207 66.693L40.9292 65.9344H43.4803C43.6577 65.9344 43.7908 65.7782 43.7465 65.5997L43.4359 64.2163L44.4785 58.3482" fill="#FFA18D"/>
<path d="M36.2042 66.0014C36.7588 65.689 38.6222 64.4841 38.6222 64.4841L40.9293 65.9344H43.8131V67.0054H40.8405V66.3584H40.5743C40.5078 66.3584 40.4412 66.3807 40.3969 66.4253L39.7314 66.9162C39.6648 66.9831 39.5539 67.0054 39.4652 67.0054H35.938C35.4721 67.0054 35.3612 66.4922 36.2042 66.0014Z" fill="#010101"/>
<path d="M41.7055 66.1352L43.6133 64.9527L43.5024 64.4841L41.4393 65.9344L41.7055 66.1352Z" fill="#010101"/>
<path d="M53.7069 52.2348L58.9422 57.3889C58.9422 57.3889 58.4098 61.9406 58.4542 61.9853C58.4986 62.0076 60.8722 59.4863 60.8722 59.4863L61.3159 57.8352L62.9796 55.894C63.0905 55.7601 63.0684 55.5593 62.9131 55.4701L61.6708 54.8007L57.9662 50.1375" fill="#FFA18D"/>
<path d="M58.2323 61.4499C58.3432 60.8251 58.6981 58.6162 58.6981 58.6162L61.2936 57.8353L63.2014 55.6487L64 56.3404L62.0257 58.5939L61.5376 58.17L61.3602 58.3708C61.3158 58.4154 61.2936 58.4823 61.2936 58.5493L61.2271 59.3748C61.2271 59.4641 61.1827 59.5533 61.1161 59.6203L58.7869 62.2978C58.4985 62.6547 58.0326 62.4093 58.2323 61.4499Z" fill="#010101"/>
<path d="M61.9592 57.3893L62.3363 55.1357L61.9148 54.9126L61.6264 57.4562L61.9592 57.3893Z" fill="#010101"/>
<path d="M43.7909 26.3301C43.7909 26.3301 39.6869 38.1779 39.1545 43.2428C38.6221 48.3077 38.1785 61.405 38.1785 61.405H45.7208C45.7208 61.405 46.7635 44.8716 47.4733 42.328C47.8726 40.9446 48.3385 38.3564 49.2702 33.827C50.5347 30.5917 51.1558 29.3646 50.579 26.6871" fill="#F05448"/>
<path d="M46.9188 26.1963C46.9188 26.1963 46.9188 29.9671 46.586 31.7521C46.1645 33.6263 43.8131 40.2977 45.0553 43.8453C46.3198 47.393 55.6147 57.0988 55.6147 57.0988L59.7186 51.8777L51.91 41.6141L53.9287 33.5147C53.9287 33.5147 55.9031 29.9671 54.0618 26.3748" fill="#F05448"/>
<path d="M46.9187 28.1821C46.9187 28.1821 46.9187 29.9894 46.5859 31.7521C46.1645 33.6263 43.813 40.2977 45.0553 43.8454C45.3437 44.6709 46.0314 45.7642 46.8965 46.9691" stroke="#91302C" stroke-width="0.75" stroke-miterlimit="10" stroke-linejoin="round"/>
<path d="M44.3898 23.6973L43.7686 26.3301C47.6507 27.7358 54.0618 26.3301 54.0618 26.3301L52.0431 21.7561" fill="#FFA18D"/>
<path d="M59.0975 52.6587L51.2446 42.9082C50.9562 42.5512 50.8453 42.0826 50.934 41.6364L52.4425 33.8717C52.4869 33.6263 52.5534 33.4032 52.6643 33.18C53.0858 32.2652 53.6404 29.2085 53.1967 27.7358" stroke="#91302C" stroke-width="0.75" stroke-miterlimit="10" stroke-linejoin="round"/>
<path d="M43.3915 27.4458C43.3915 27.4458 46.7412 29.2977 54.5276 27.4458" stroke="#91302C" stroke-width="0.75" stroke-miterlimit="10" stroke-linejoin="round"/>
<path d="M45.8538 28.115L45.4767 28.0704C45.3658 28.0481 45.277 27.9589 45.2992 27.8473L45.4767 26.9771C45.4989 26.8655 45.6098 26.7986 45.7207 26.8209L46.608 26.8879" stroke="#91302C" stroke-width="0.75" stroke-miterlimit="10" stroke-linejoin="round"/>
<path d="M43.7908 26.3301C47.673 27.7358 54.084 26.3301 54.084 26.3301" stroke="#91302C" stroke-width="0.75" stroke-miterlimit="10" stroke-linejoin="round"/>
<path d="M46.1423 27.7357C45.9586 27.7357 45.8096 27.6158 45.8096 27.4679C45.8096 27.3201 45.9586 27.2002 46.1423 27.2002C46.3261 27.2002 46.4751 27.3201 46.4751 27.4679C46.4751 27.6158 46.3261 27.7357 46.1423 27.7357Z" fill="#F8F4F1"/>
<path d="M48.9152 26.9548L49.0927 28.2489" stroke="#91302C" stroke-width="0.75" stroke-miterlimit="10" stroke-linejoin="round"/>
<path d="M52.2649 26.6426L52.6199 27.8474" stroke="#91302C" stroke-width="0.75" stroke-miterlimit="10" stroke-linejoin="round"/>
<path d="M50.8896 28.1152C50.8896 28.1152 51.3554 29.7663 53.2854 30.168" stroke="#91302C" stroke-width="0.75" stroke-miterlimit="10" stroke-linejoin="round"/>
<path d="M46.1423 28.1597C46.1423 28.1597 45.9649 31.038 45.9649 31.3726C45.9649 31.7966 46.5416 31.9974 46.5416 31.9974" stroke="#91302C" stroke-width="0.75" stroke-miterlimit="10" stroke-linejoin="round"/>
<path d="M42.8814 29.0076C42.8814 29.0076 43.924 28.9853 44.7004 27.9812" stroke="#91302C" stroke-width="0.75" stroke-miterlimit="10" stroke-linejoin="round"/>
<path d="M44.5895 61.4052L46.0093 45.6304" stroke="#91302C" stroke-width="0.75" stroke-miterlimit="10" stroke-linejoin="round"/>
<path d="M32.6103 27.1556L33.6085 29.1191C33.6085 29.1191 34.873 29.6992 34.9174 29.6769C34.9617 29.6322 35.7382 28.7844 35.7382 28.7398C35.7382 28.6951 34.629 25.7722 34.629 25.7722" fill="#FF886F"/>
<path d="M43.3027 13.0543L40.9735 20.1719L35.2723 26.8433L36.6477 28.182C36.6477 28.182 43.4136 23.2064 44.4341 21.8007C45.4545 20.395 48.0944 13.032 48.0944 13.032" fill="#FFA18D"/>
<path d="M35.7604 26.4639C35.3611 26.7986 34.5625 27.3787 34.1632 27.691C33.9192 27.8919 33.5199 28.2488 33.5643 28.3604C33.6974 28.6282 34.2742 27.9365 34.3407 28.0703C34.3851 28.1596 33.8527 28.5612 33.5865 28.762C33.3424 28.9405 33.0319 29.2306 33.0984 29.3868C33.1872 29.5876 34.5404 28.5166 34.5404 28.5166C34.5404 28.5166 33.165 29.6768 33.2315 29.833C33.3425 30.0561 34.74 28.8959 34.74 28.8959C34.74 28.8959 33.5865 29.9 33.653 30.0785C33.7418 30.2346 34.5847 29.4983 34.9618 29.2306C34.7178 29.476 34.0523 30.0338 34.1189 30.1677C34.1854 30.2793 34.74 29.9223 34.8509 29.8107C35.6273 29.186 37.0249 27.8249 37.0249 27.8249" fill="#FFA18D"/>
<path d="M34.3407 28.0704C34.3407 28.0704 34.9397 28.1151 35.4943 27.8696" stroke="#E07A6C" stroke-width="0.75" stroke-miterlimit="10" stroke-linejoin="round"/>
<path d="M33.1205 28.1821C33.2758 28.5837 33.3867 28.9631 33.5864 29.3424C33.6308 29.4316 33.7195 29.5432 33.8304 29.4986C33.9192 29.4539 33.9192 29.3424 33.897 29.2308C33.8526 29.03 33.7639 28.5838 33.7639 28.5838" fill="#FF886F"/>
<path d="M35.0283 29.6771C34.7843 29.5432 34.5181 29.387 34.2519 29.2531C34.2075 29.2308 34.1632 29.2085 34.1188 29.2085C34.0744 29.2085 34.0079 29.2308 33.9857 29.2754C33.9635 29.3201 33.9857 29.387 34.0079 29.4316C34.141 29.6771 34.4072 29.8109 34.6734 29.9002C34.7399 29.9225 34.8065 29.9448 34.873 29.9448C34.9396 29.9448 35.0061 29.9002 35.0283 29.8332" fill="#FF886F"/>
<path d="M35.2723 29.4984C35.0504 29.3199 34.7842 29.1861 34.5624 29.0076C34.518 28.9853 34.4737 28.9406 34.4293 28.9406C34.3849 28.9183 34.3184 28.9406 34.2962 28.9853C34.274 29.0299 34.274 29.0968 34.2962 29.1415C34.3849 29.4092 34.629 29.5877 34.873 29.7216C34.9395 29.7662 34.9839 29.7885 35.0504 29.7885C35.117 29.7885 35.3167 29.7885 35.3167 29.5208" fill="#FF886F"/>
<path d="M35.4942 29.2305C35.2724 29.052 35.1171 28.9405 34.8953 28.762C34.8509 28.7397 34.8065 28.695 34.7621 28.695C34.7178 28.6727 34.6512 28.695 34.6291 28.7397C34.6069 28.7843 34.6069 28.8512 34.6291 28.8958C34.7178 29.1636 34.9618 29.3421 35.2058 29.476C35.2724 29.5206 35.3167 29.5429 35.3833 29.5429C35.4498 29.5429 35.6273 29.5429 35.5829 29.2528" fill="#FF886F"/>
<path d="M35.7604 29.0076C35.5386 28.8068 35.4498 28.6952 35.228 28.5167C35.1836 28.4944 35.1615 28.4498 35.1171 28.4275C35.0727 28.4051 35.0062 28.4275 34.984 28.4498C34.9396 28.4944 34.9618 28.5613 34.9618 28.606C35.0284 28.8737 35.2724 29.0745 35.4942 29.2307C35.5386 29.2753 35.6051 29.2976 35.6717 29.32C35.7382 29.32 35.9379 29.253 35.827 28.9406" fill="#FF886F"/>
<path d="M46.719 10.2429C46.719 10.2429 44.1457 10.4884 42.6372 12.4741C41.3062 14.2368 40.5742 18.253 40.5742 18.253L43.3693 20.3504L45.7429 16.3565" fill="white"/>
<path d="M44.1235 13.4781C42.1713 16.4902 42.1713 24.545 42.1713 24.545C42.1713 24.545 47.2513 26.3969 54.9712 24.3442C54.9712 24.3442 53.374 16.044 52.5976 15.2854C51.8433 14.5491 47.3179 9.52881 47.3179 9.52881L44.7002 11.6485L44.1235 13.4781Z" fill="white"/>
<path d="M56.7683 30.0118C56.7683 30.5473 56.7461 31.5068 56.7461 32.0423C56.7461 32.3546 56.7904 32.8901 56.9014 32.9124C57.1897 32.9794 57.0123 32.0869 57.1454 32.1092C57.2341 32.1315 57.2341 32.8009 57.2119 33.1356C57.2119 33.4479 57.2341 33.8496 57.3894 33.8942C57.589 33.9388 57.589 32.2208 57.589 32.2208C57.589 32.2208 57.6556 34.0281 57.8109 34.0727C58.0549 34.1173 58.0105 32.2877 58.0105 32.2877C58.0105 32.2877 58.0771 33.8272 58.2546 33.8719C58.432 33.9165 58.3655 32.7786 58.3877 32.31C58.432 32.6447 58.4542 33.5372 58.5873 33.5595C58.7204 33.5818 58.7648 32.9124 58.7648 32.7563C58.7426 31.7745 58.5429 29.811 58.5429 29.811" fill="#FFA18D"/>
<path d="M54.9048 14.616C54.9048 14.616 57.0566 19.1007 57.4781 20.1048C58.676 23.0054 58.6316 30.1453 58.6316 30.1453L56.7904 30.19C56.7904 30.19 54.7717 22.0236 54.572 21.7782C53.7956 20.7965 51.178 16.691 51.178 16.691" fill="#FFA18D"/>
<path d="M47.7617 10.2429C47.7617 10.2429 51.5994 10.3991 53.7069 11.9387C55.7921 13.4782 57.5002 18.2753 57.5002 18.2753L52.0875 20.6405L49.9135 15.9102" fill="white"/>
<path d="M49.9135 15.9104L52.0875 20.6406L57.5002 18.2755" stroke="#5A636D" stroke-width="0.75" stroke-miterlimit="10" stroke-linejoin="round"/>
<path d="M47.0518 7.49854L48.3385 9.81901C48.3385 9.81901 48.405 10.8454 47.1628 11.2916C46.2754 11.604 46.0536 10.6892 46.0536 10.6892L45.499 8.05634" fill="#FFA18D"/>
<path d="M44.1902 4.50855C43.2363 5.91423 42.7704 9.21645 44.7004 9.21645C46.231 9.21645 47.2958 8.0339 47.4511 6.78441C47.673 4.91018 45.144 3.10288 44.1902 4.50855Z" fill="#FFA18D"/>
<path d="M45.6986 9.03815C45.6986 9.03815 46.2754 8.83734 46.8522 8.16797" stroke="#E07A6C" stroke-width="0.75" stroke-miterlimit="10" stroke-linejoin="round"/>
<path d="M44.5007 6.40505C44.5229 6.49429 44.4563 6.58354 44.3676 6.60586C44.2789 6.62817 44.1901 6.56123 44.168 6.47198C44.1458 6.38273 44.2123 6.29348 44.3011 6.27117C44.3898 6.24886 44.4785 6.3158 44.5007 6.40505Z" fill="#33002C"/>
<path d="M44.0127 5.91437C44.1902 5.7805 44.4342 5.75819 44.656 5.82513C44.8335 5.89206 45.0331 6.02594 45.0775 6.22675C45.0775 6.24906 45.0553 6.27137 45.0331 6.24906C44.9666 6.18212 44.9222 6.11518 44.8557 6.04825C44.7891 5.98131 44.7004 5.93669 44.6117 5.91437C44.412 5.84744 44.2124 5.86975 44.0349 5.959C44.0127 5.98131 43.9683 5.93669 44.0127 5.91437Z" fill="#33002C"/>
<path d="M43.6801 6.22656C43.6801 6.22656 42.9036 7.34218 43.0145 7.47605C43.1698 7.72149 43.5691 7.65455 43.5691 7.65455" fill="#FFA18D"/>
<path d="M44.656 7.98944L43.6356 7.83325C43.6356 7.83325 43.6578 8.63649 43.9905 8.68112C44.656 8.79268 44.656 7.98944 44.656 7.98944Z" fill="white"/>
<path d="M47.9835 2.8129C47.0518 2.34434 45.8761 2.45591 45.0331 3.1699C44.412 3.1699 43.5246 3.5269 43.2141 4.39708C43.0366 4.88795 43.0144 5.51269 43.5025 6.02587C43.569 5.78044 43.9239 4.86563 44.2567 4.57557C44.5894 4.82101 45.0775 5.37882 45.2549 5.60194C45.5877 6.04818 45.8761 6.51674 46.0979 7.02993C46.3419 7.54311 46.6525 8.03398 46.9187 8.54716C47.2071 9.06034 47.5177 9.57353 47.9392 9.99746C48.5603 10.6222 49.3589 11.0461 50.2019 11.3139C51.0227 11.6039 51.91 11.7601 52.753 11.9609C53.3076 12.0948 53.8843 12.251 54.3058 12.608C54.5942 12.8534 54.9491 13.2997 55.1488 13.6121C55.415 12.7642 55.3928 11.9386 55.1488 11.2916C54.927 10.6445 54.4833 10.4214 54.3502 10.1536C54.0396 9.5289 54.2614 9.30578 54.1727 8.6141C54.084 8.05629 53.7734 7.56542 53.3519 7.20842C52.8195 6.78449 52.154 6.69524 51.5107 6.58368C50.9561 6.49443 50.3793 6.29362 49.9357 5.95894C49.492 5.62425 49.4698 4.73176 49.248 4.2632C49.0261 3.66077 48.5603 3.10296 47.9835 2.8129Z" fill="#010101"/>
<path d="M45.743 7.05219C45.8761 6.76213 46.1867 6.76213 46.342 6.80676C46.6747 6.94063 46.7857 7.34225 46.7191 7.72156C46.6304 8.12318 46.3864 8.25706 46.2089 8.27937C46.0092 8.30168 45.8318 8.10087 45.8096 7.7885" fill="#FFA18D"/>
<path d="M42.4598 19.6588C42.4598 19.6588 42.7482 15.0402 43.3915 13.7014" stroke="#5A636D" stroke-width="0.75" stroke-miterlimit="10" stroke-linejoin="round"/>
</svg>
