<svg width="80" height="116" viewBox="0 0 80 116" fill="none" xmlns="http://www.w3.org/2000/svg">
<path d="M69.2316 23.9241C70.6475 23.215 71.8026 21.9087 72.3243 20.4158C72.4361 20.1172 72.5106 19.8186 72.5106 19.52C72.5106 18.9602 72.2497 18.363 71.8399 18.0271C71.43 17.6912 70.7966 17.5046 70.2376 17.6165C69.4924 17.7658 68.8962 18.3257 68.4491 18.9228C68.002 19.4827 67.5921 20.1545 67.7411 20.8263" fill="#FFD4CB"/>
<path d="M53.9172 25.1558L57.7178 30.5303L66.6606 20.4158L70.5357 22.9911C70.5357 22.9911 63.9405 40.4956 57.6806 40.4956C53.0229 40.4956 46.5022 29.1494 46.5022 29.1494" fill="#FFD4CB"/>
<path d="M39.9814 17.5792C39.9814 17.5792 45.8687 16.7954 49.7812 19.7066C53.7309 22.6551 57.7178 29.4106 57.7178 29.4106L46.1296 36.39L39.9814 27.9923" fill="#DF6767"/>
<path d="M67.9274 13.511C68.6726 14.4814 70.6475 16.3102 71.579 17.094C72.2497 17.6538 73.144 18.0271 73.7402 18.6242C74.2246 19.1094 74.0383 19.2587 73.5539 19.632C72.8832 20.1545 72.1379 20.565 71.3554 20.8636C71.2064 20.9383 71.0574 20.9756 70.9083 20.9383C70.7593 20.9009 70.6475 20.8263 70.5357 20.7517C70.014 20.3411 69.5669 19.8559 69.157 19.3707C68.0765 18.1017 65.9898 15.7877 65.1328 14.3694" fill="black"/>
<path d="M63.0089 15.7877C63.7914 16.7581 65.1328 16.9447 66.0271 16.1983C66.9214 15.4891 66.9959 14.1082 66.2134 13.1378C65.4309 12.1674 64.0895 11.9807 63.1952 12.7272C62.301 13.4363 62.2264 14.8173 63.0089 15.7877Z" fill="#C06666"/>
<path d="M66.8468 16.3849L69.2688 14.5187L65.4309 9.62939L62.8971 11.8315C62.6363 12.0554 62.6735 12.3913 62.8226 12.6899C63.6796 14.2201 64.6111 15.4891 65.9898 16.3102C66.2879 16.4968 66.6232 16.6088 66.8468 16.3849Z" fill="#DF6767"/>
<path d="M66.4369 12.8393C67.5175 14.1829 68.8217 14.9294 69.3433 14.5188C69.865 14.1082 69.3806 12.69 68.3 11.3463C67.2194 10.0027 65.9153 9.25625 65.3936 9.66681C64.872 10.0774 65.3564 11.4956 66.4369 12.8393Z" fill="black"/>
<path d="M77.1681 11.9434C77.1681 11.9434 71.9143 12.9884 69.306 14.0335C68.3744 14.2574 67.2939 13.1377 66.7722 12.4659C65.3935 10.749 65.5798 10.0026 65.5798 10.0026C67.6665 7.50193 69.3432 2.38867 69.3432 2.38867" fill="#C06666"/>
<path d="M71.4298 8.65897C73.9635 11.7568 77.3916 13.1751 79.0683 11.7941C80.7451 10.4132 80.0744 6.79282 77.5406 3.65768C75.0068 0.559871 71.5788 -0.858405 69.902 0.522548C68.188 1.9035 68.896 5.56116 71.4298 8.65897Z" fill="#DF6767"/>
<path d="M72.1752 8.06192C74.3364 10.6745 77.131 11.9435 78.4724 10.8238C79.8138 9.74145 79.1431 6.71829 77.0192 4.06835C74.858 1.45574 72.0634 0.186754 70.722 1.30644C69.3434 2.42614 70.0141 5.4493 72.1752 8.06192Z" fill="black"/>
<path d="M76.0131 6.8302C74.7835 7.83792 73.9637 8.80832 73.4793 9.44281C73.0322 9.03226 72.5851 8.58439 72.1752 8.09919C71.7653 7.57666 71.3927 7.05414 71.0946 6.56894C71.8026 6.23303 72.9577 5.59854 74.15 4.59082L76.0131 6.8302Z" fill="#7A77A0"/>
<path d="M74.4481 6.19565C74.9698 6.83015 75.6405 7.12873 76.0131 6.83015C76.3484 6.56888 76.1994 5.82242 75.715 5.18793C75.1933 4.55344 74.5226 4.25486 74.15 4.55344C73.8146 4.8147 73.9264 5.56116 74.4481 6.19565Z" fill="#C06666"/>
<path d="M66.0643 21.6101C66.2134 20.1172 66.735 18.6616 67.7038 17.5419C68.5236 16.5715 69.3806 15.7131 70.6475 15.825C70.8338 15.825 71.0574 15.937 71.0201 16.0863C71.0201 16.1983 70.9083 16.2729 70.8338 16.3476C70.2376 16.7954 69.6414 17.3926 69.4551 18.1764C69.3806 18.5496 69.3806 18.9602 69.3806 19.3707C69.3061 20.4158 68.7844 21.3862 67.9647 22.0207" fill="#FFD4CB"/>
<path d="M73.1067 18.0643C73.1067 17.803 73.1812 17.6164 73.1067 17.3552C73.0694 17.2432 72.9576 17.1312 72.8459 17.0566C72.7713 16.9819 72.6223 16.9819 72.5105 16.9819C72.3987 17.0193 72.2869 17.0566 72.1752 17.1312C71.728 17.3925 71.3554 17.803 71.2809 18.3256C71.2809 18.3629 71.2809 18.4002 71.2809 18.4375C71.2809 18.4749 71.3181 18.4749 71.3181 18.5122C71.4299 18.5868 71.6162 18.6615 71.7653 18.6615C72.1379 18.6615 72.7341 18.0643 72.7713 17.9523" fill="#FFD4CB"/>
<path d="M72.5479 17.5045C72.5479 17.2432 72.5106 16.982 72.4361 16.758C72.3988 16.6461 72.3615 16.5714 72.287 16.4968C72.2125 16.4221 72.0635 16.4221 71.9517 16.4221C71.8399 16.4594 71.7281 16.4968 71.6163 16.5714C71.1692 16.8327 70.7966 17.2432 70.722 17.7657C70.722 17.8031 70.722 17.8404 70.722 17.8777C70.722 17.915 70.7593 17.915 70.7593 17.9524C70.8711 18.027 71.0574 18.0643 71.2064 18.027C71.3555 17.9897 71.5045 17.8777 71.6163 17.8031C71.7654 17.6911 71.9144 17.6165 72.0635 17.5045C72.138 17.4298 72.2498 17.3925 72.287 17.2805" fill="#FFD4CB"/>
<path d="M71.9517 16.8702C71.9517 16.6089 71.9144 16.3477 71.8399 16.1237C71.8026 16.0118 71.7653 15.9371 71.6908 15.8625C71.6163 15.7878 71.4673 15.7878 71.3555 15.7878C71.2437 15.8252 71.1319 15.8625 71.0201 15.9371C70.573 16.1984 70.2004 16.6089 70.1259 17.1315C70.1259 17.1688 70.1259 17.2061 70.1259 17.2434C70.1259 17.2808 70.1631 17.2808 70.1631 17.3181C70.2749 17.3927 70.4612 17.4301 70.6103 17.3927C70.7593 17.3554 70.9083 17.2434 71.0201 17.1688C71.1692 17.0568 71.3182 16.9822 71.4673 16.8702C71.5418 16.7956 71.6536 16.7582 71.6908 16.6463" fill="#FFD4CB"/>
<path d="M71.3555 16.2357C71.3555 15.9744 71.3182 15.7132 71.2437 15.4892C71.2064 15.3773 71.1692 15.3026 71.0946 15.228C71.0201 15.1533 70.8711 15.1533 70.7593 15.1533C70.6475 15.1906 70.5357 15.228 70.4239 15.3026C69.9768 15.5639 69.6042 15.9744 69.5297 16.497C69.5297 16.5343 69.5297 16.5716 69.5297 16.6089C69.5297 16.6462 69.5669 16.6462 69.5669 16.6836C69.6787 16.7582 69.865 16.7955 70.0141 16.7582C70.1631 16.7209 70.3121 16.6089 70.4239 16.5343C70.573 16.4223 70.722 16.3477 70.8711 16.2357C70.9456 16.161 71.0574 16.1237 71.0946 16.0118" fill="#FFD4CB"/>
<path d="M69.3434 18.7737C69.3434 18.7737 69.3434 21.3116 68.5609 22.0954" stroke="#DF6767" stroke-width="0.75" stroke-miterlimit="10" stroke-linejoin="round"/>
<path d="M36.6653 115.776V115.104H46.9494C47.3593 115.104 47.7691 114.881 47.9927 114.507H48.0672V115.59C48.0672 115.627 48.0672 115.664 48.03 115.702L47.9927 115.739C47.8064 115.926 47.5828 116.038 47.322 116.038H36.8889C36.7771 116 36.6653 115.888 36.6653 115.776Z" fill="#010101"/>
<path d="M37.5223 102.713L36.9634 111.372L37.2615 114.881H47.2475C47.5456 114.881 47.7692 114.657 47.7692 114.358C47.7692 114.134 47.6574 113.947 47.4338 113.873L42.6644 110.999L44.4529 102.527" fill="#FFD4CB"/>
<path d="M42.6271 110.999L47.6946 113.873C47.9182 113.985 48.0672 114.209 48.0672 114.47C48.0672 114.806 47.6946 115.105 47.3965 115.105H36.6653L36.9634 111.26C36.9634 111.223 40.2796 112.343 42.6271 110.999Z" fill="#DF6767"/>
<path d="M43.5958 111.223C43.2977 111.596 43.0369 112.007 42.8506 112.455" stroke="#010101" stroke-miterlimit="10" stroke-linecap="round" stroke-linejoin="round"/>
<path d="M44.2666 111.634C43.9685 112.044 43.8195 112.305 43.6704 112.679" stroke="#010101" stroke-miterlimit="10" stroke-linecap="round" stroke-linejoin="round"/>
<path d="M44.7882 111.932C44.5646 112.193 44.3783 112.604 44.2292 112.903" stroke="#010101" stroke-miterlimit="10" stroke-linecap="round" stroke-linejoin="round"/>
<path d="M18.5562 115.776V115.104H28.8403C29.2501 115.104 29.66 114.881 29.8836 114.507H29.9581V115.59C29.9581 115.627 29.9581 115.664 29.9209 115.702L29.8836 115.739C29.6973 115.926 29.4737 116.038 29.2129 116.038H18.7797C18.6679 116 18.5562 115.888 18.5562 115.776Z" fill="#010101"/>
<path d="M19.4505 102.713L18.8916 111.372L19.1897 114.881H29.1757C29.4738 114.881 29.6974 114.657 29.6974 114.358C29.6974 114.134 29.5856 113.947 29.362 113.873L24.5926 110.999L26.3811 102.527" fill="#FFD4CB"/>
<path d="M24.5552 110.999L29.6228 113.873C29.8463 113.985 29.9954 114.209 29.9954 114.47C29.9954 114.806 29.6228 115.105 29.3247 115.105H18.5562L18.8542 111.26C18.8542 111.223 22.1705 112.343 24.5552 110.999Z" fill="#DF6767"/>
<path d="M25.4867 111.223C25.1886 111.596 24.9278 112.007 24.7415 112.455" stroke="#010101" stroke-miterlimit="10" stroke-linecap="round" stroke-linejoin="round"/>
<path d="M26.1575 111.634C25.8594 112.044 25.7103 112.305 25.5613 112.679" stroke="#010101" stroke-miterlimit="10" stroke-linecap="round" stroke-linejoin="round"/>
<path d="M26.7164 111.932C26.4928 112.193 26.3065 112.604 26.1575 112.903" stroke="#010101" stroke-miterlimit="10" stroke-linecap="round" stroke-linejoin="round"/>
<path d="M39.9442 48.0723C39.9442 48.0723 40.8384 55.0517 39.9442 61.4339C39.0499 67.8161 27.6852 108.274 27.6852 108.274H15.6125L22.3196 62.5163C22.3196 62.5163 21.7979 55.5742 25.9339 49.6398" fill="#7A77A0"/>
<path d="M49.4832 49.6397C49.4832 49.6397 50.0049 59.0078 49.6322 69.3463C49.0361 86.4402 46.1669 108.274 46.1669 108.274H34.7277L35.2867 63.7851C35.2867 63.7851 32.9019 53.2973 35.2121 48.4827" fill="#7A77A0"/>
<path d="M35.063 81.8869C35.063 81.8869 39.0499 61.8071 40.3168 53.4094" stroke="black" stroke-width="0.75" stroke-miterlimit="10" stroke-linejoin="round"/>
<path d="M41.3599 53.4094L40.5029 58.672C40.3911 59.1198 40.093 59.4557 39.6832 59.6424L39.3105 59.7916" stroke="black" stroke-width="0.75" stroke-miterlimit="10" stroke-linejoin="round"/>
<path d="M28.4677 105.438H16.0225" stroke="black" stroke-width="0.75" stroke-miterlimit="10" stroke-linejoin="round"/>
<path d="M17.4756 108.274L25.0769 62.367C25.0769 62.367 24.6298 55.9848 27.3498 52.2898" stroke="black" stroke-width="0.75" stroke-miterlimit="10" stroke-linejoin="round"/>
<path d="M31.9703 53.4468C31.9703 53.4468 30.8524 55.6115 29.8091 55.9847C28.7658 56.358 25.375 57.1418 25.375 57.1418" stroke="black" stroke-width="0.75" stroke-miterlimit="10" stroke-linejoin="round"/>
<path d="M49.5948 57.1046C49.5948 57.1046 46.912 56.3208 46.1295 55.9475C45.1607 55.4997 45.0862 52.999 45.0862 52.999" stroke="black" stroke-width="0.75" stroke-miterlimit="10" stroke-linejoin="round"/>
<path d="M34.7649 105.438H46.5395" stroke="black" stroke-width="0.75" stroke-miterlimit="10" stroke-linejoin="round"/>
<path d="M36.4043 108.274C36.4043 108.274 37.7084 73.4893 37.7084 68.7493" stroke="black" stroke-width="0.75" stroke-miterlimit="10" stroke-linejoin="round"/>
<path d="M44.0801 19.0347C44.0801 19.0347 48.8868 22.655 49.5947 32.3217C50.3027 41.6525 50.489 52.7374 50.489 52.7374C39.2361 56.2831 22.4685 52.6254 22.4685 52.6254C22.4685 52.6254 25.4121 27.9922 29.9953 20.7142L38.1928 16.9819L44.0801 19.0347Z" fill="#DF6767"/>
<path d="M30.8896 30.1943C30.8896 30.1943 27.4989 34.6731 23.6609 39.8237C20.6428 43.8545 7.15419 53.4466 7.15419 53.4466L4.84399 49.4157L15.6498 36.1287L23.8473 24.4839" fill="#FFD4CB"/>
<path d="M5.4402 48.968C4.62045 49.6398 2.98095 50.7595 2.16121 51.4313C1.67681 51.8046 0.857059 52.551 0.968843 52.8123C1.26693 53.4841 2.42203 52.0285 2.57108 52.3644C2.6456 52.5884 1.56502 53.3721 1.0061 53.7827C0.521708 54.1559 -0.111734 54.7158 0.037311 55.089C0.223617 55.5742 2.98095 53.4468 2.98095 53.4468C2.98095 53.4468 0.149095 55.7981 0.335401 56.1714C0.59623 56.7312 3.42809 54.3799 3.42809 54.3799C3.42809 54.3799 1.04337 56.4326 1.22967 56.8432C1.41598 57.2537 3.13 55.7235 3.91249 55.201C3.42809 55.6862 2.04942 56.8432 2.19847 57.1418C2.34751 57.4403 3.46535 56.7312 3.72618 56.5446C5.29115 55.3129 8.16027 52.5137 8.16027 52.5137" fill="#FFD4CB"/>
<path d="M5.88729 50.5354C5.88729 50.5354 4.95576 51.9164 3.65161 51.991" stroke="#DF6767" stroke-width="0.75" stroke-miterlimit="10" stroke-linejoin="round"/>
<path d="M37.1123 17.5046C37.1123 17.5046 29.4737 17.0567 26.1574 20.3785C22.8412 23.7002 20.7173 27.955 20.7173 27.955L29.0638 35.0091L33.4979 27.2459" fill="#DF6767"/>
<path d="M29.0266 35.0091L33.7215 28.2537" stroke="#010101" stroke-width="0.75" stroke-miterlimit="10" stroke-linejoin="round"/>
<path d="M42.4034 17.5046C42.2543 17.6539 42.776 20.0426 39.0499 20.0426C35.4728 20.0426 34.5413 17.5793 34.5413 17.5793" stroke="#010101" stroke-width="0.75" stroke-miterlimit="10" stroke-linejoin="round"/>
<path d="M49.8184 34.1508L48.8496 24.1855" stroke="#010101" stroke-width="0.75" stroke-miterlimit="10" stroke-linejoin="round"/>
<path d="M41.1366 13.5109L37.2241 8.95752L35.6591 13.4736L35.5474 14.4813L35.6964 17.9524C35.6964 17.9524 38.8264 20.1918 41.1738 18.3629C41.3229 18.251 41.3601 18.1017 41.3601 17.915L41.1366 13.5109Z" fill="#FFD4CB"/>
<path d="M40.2423 5.71036C41.5092 7.12864 43.9312 12.1299 42.8506 14.1454C41.8818 15.9369 39.8697 15.8622 38.5656 15.2651C37.4477 14.7425 34.4296 10.4131 35.063 8.65888C35.6965 6.86738 38.4538 3.69492 40.2423 5.71036Z" fill="#FFD4CB"/>
<path d="M35.361 5.67313C35.7709 4.62809 37.0005 3.99359 38.1929 3.91895C38.789 3.88162 42.2171 4.44147 42.4034 6.90479L38.0811 7.98716C37.8202 9.25614 37.6339 11.0103 37.075 12.2047C37.0005 12.3166 35.7336 14.8546 35.5846 14.7426C32.9763 13.0631 31.6349 10.8984 32.3056 8.84559C32.7154 7.76322 33.6097 5.97171 35.361 5.67313Z" fill="#010101"/>
<path d="M41.0618 15.5638C41.0618 15.5638 39.1987 15.7878 38.1182 14.8174" stroke="#DF6767" stroke-width="0.75" stroke-miterlimit="10" stroke-linejoin="round"/>
<path d="M41.6582 9.29346C41.6582 9.29346 43.8566 10.4505 43.8194 11.0103C43.7448 11.5702 42.9251 11.6821 42.9251 11.6821" fill="#FFD4CB"/>
<path d="M40.9502 9.33074C41.0248 9.40539 41.0993 9.55468 41.1365 9.62933C41.2111 9.77862 41.0993 9.92791 40.9502 9.96524C40.6521 10.0026 40.3913 9.36807 40.7267 9.2561C40.8012 9.21877 40.8757 9.2561 40.9502 9.33074Z" fill="#010101"/>
<path d="M42.2915 12.4285L40.1304 12.8763C40.1304 12.8763 40.8011 14.3693 42.0307 13.996C42.7759 13.7348 42.2915 12.4285 42.2915 12.4285Z" fill="#C06666"/>
<path d="M41.062 8.62177C40.6521 8.8457 40.2423 9.18161 39.9442 9.51752C39.9069 9.51752 39.6833 9.36823 39.6833 9.21893C39.6833 9.10697 40.2423 8.54712 40.8384 8.24854C40.8012 8.24854 41.0993 8.54712 41.062 8.62177Z" fill="#010101"/>
<path d="M37.522 11.5327C37.224 11.3088 36.8141 11.0848 36.516 11.2341C36.3669 11.3088 36.2179 11.4581 36.1806 11.6074C35.8826 12.4658 36.4042 13.5855 37.2985 13.8467C37.6711 13.9587 38.081 13.8841 38.1555 13.4362L37.6711 11.7193C37.6711 11.6447 37.5966 11.57 37.522 11.5327Z" fill="#FFD4CB"/>
<path d="M36.8516 13.6601C36.8516 13.6601 37.6341 14.0707 38.1185 13.6228" stroke="#DF6767" stroke-width="0.75" stroke-miterlimit="10" stroke-linejoin="round"/>
</svg>
