<svg width="19" height="19" viewBox="0 0 19 19" fill="none" xmlns="http://www.w3.org/2000/svg">
<path d="M0.716099 10.2161C1.11161 10.2161 1.43216 9.89555 1.43216 9.5C1.43216 5.05122 5.05122 1.43216 9.5 1.43216C13.9485 1.43216 17.5678 5.05122 17.5678 9.5C17.5678 13.9485 13.9485 17.5678 9.5 17.5678C9.10449 17.5678 8.7839 17.8884 8.7839 18.2839C8.7839 18.6795 9.10449 19 9.5 19C14.7384 19 19 14.7384 19 9.5C19 4.26186 14.7384 3.72564e-07 9.5 8.30516e-07C4.26186 1.28845e-06 -1.28845e-06 4.26186 -8.30516e-07 9.5C-7.9594e-07 9.89551 0.32055 10.2161 0.716099 10.2161Z" fill="#E57B7B"/>
<path d="M12.5 6L5 13.5" stroke="#E57B7B" stroke-linecap="round"/>
<path d="M5 6L12.5 13.5" stroke="#E57B7B" stroke-linecap="round"/>
</svg>
