<svg width="32" height="32" viewBox="0 0 32 32" fill="none" xmlns="http://www.w3.org/2000/svg">
<path d="M15.4973 27.3021C15.205 27.3021 14.9543 27.0957 14.8917 26.8274C14.8708 26.7654 13.6386 20.9864 8.54266 17.457C8.3547 17.3332 8.27116 17.1268 8.29204 16.9204C8.31293 16.714 8.43824 16.5282 8.64709 16.425C8.68886 16.4044 12.6779 14.4849 15.1005 9.98548C15.2676 9.69652 15.6227 9.57269 15.9359 9.7378C16.2283 9.90292 16.3536 10.2538 16.1866 10.5634C14.2443 14.1547 11.4457 16.198 10.0255 17.0442C13.1373 19.5003 14.7455 22.6375 15.4973 24.6396C16.3954 22.2247 18.5257 18.1794 23.0577 15.6614C18.5257 13.164 16.4163 9.09797 15.4973 6.68314C14.5158 9.28373 12.1349 13.7832 6.87187 16.198C6.55859 16.3425 6.20355 16.198 6.05735 15.909C5.91116 15.5994 6.05735 15.2486 6.34974 15.1041C13.3044 11.905 14.8917 4.55727 14.8917 4.47471C14.9543 4.18576 15.205 4 15.4973 4C15.7897 4 16.0404 4.2064 16.103 4.47471C16.1239 4.55727 17.6903 11.905 24.645 15.1041C24.8538 15.2073 25 15.4137 25 15.6614C25 15.8884 24.8538 16.1154 24.645 16.2186C17.6903 19.3765 16.1239 26.7448 16.103 26.8067C16.0404 27.0957 15.7897 27.3021 15.4973 27.3021Z" fill="white"/>
<rect x="1" y="1" width="30" height="30" rx="10" stroke="white"/>
</svg>
